<svg xmlns="http://www.w3.org/2000/svg" xmlns:xlink="http://www.w3.org/1999/xlink" version="1.1" id="Layer_1" x="0px" y="0px" width="100px" height="100px" viewBox="0 0 100 100" enable-background="new 0 0 100 100" xml:space="preserve">
<path d="M92.244,92.244H7.755V7.755h84.489V92.244z M9.292,90.709h81.417V9.292H9.292V90.709z"/>
<polygon points="63.975,30.276 63.975,22.455 56.531,22.455 56.531,19.148 43.727,19.148 43.727,22.455 35.962,22.455   35.962,30.276 22.348,30.276 22.348,77.65 38.375,77.65 38.375,72.73 39.92,72.73 39.92,77.65 41.468,77.65 41.468,72.73   43.015,72.73 43.015,77.65 44.562,77.65 44.562,72.73 46.11,72.73 46.11,77.65 47.657,77.65 47.657,72.73 49.204,72.73   49.204,77.65 50.75,77.65 50.75,72.73 52.297,72.73 52.297,77.65 53.846,77.65 53.846,72.73 55.393,72.73 55.393,77.65   56.938,77.65 56.938,72.73 58.486,72.73 58.486,77.65 60.031,77.65 60.031,72.73 61.578,72.73 61.578,77.65 77.65,77.65   77.65,30.276 "/>
</svg>