<svg xmlns="http://www.w3.org/2000/svg" xmlns:xlink="http://www.w3.org/1999/xlink" version="1.1" id="Layer_1" x="0px" y="0px" width="100px" height="100px" viewBox="0 0 100 100" style="enable-background:new 0 0 100 100;" xml:space="preserve">
<g>
	<circle cx="56.048" cy="90.642" r="2.496"/>
	<path d="M95.387,35.957C94.701,34.449,92,33.209,91,33.035V21.5C91,11.299,83.237,3,73.036,3h-3c-7.911,0-14.659,5.001-17.299,12   H7.971H7.784C5.442,15,3,16.906,3,19.248v0.187v63.317v8.813C3,94.011,5.525,96,7.971,96h52.565H62v-0.044c2-0.222,4-2.095,4-4.391   v-8.813V44.891V19.435v-0.187C66,16.906,64.631,15,62.288,15h-0.187h-1.543c2.075-3.016,5.548-5,9.478-5h3   C79.377,10,84,15.158,84,21.5v11.65c-2,0.383-2.646,1.51-3.202,2.849l-1.056,2.635c-0.49,1.178-1.16,2.944-1.391,4.511   C78.259,43.772,78,44.371,78,44.881v10.291c0,1.285,1,2.176,2,2.58V67c0,1.654,1.882,3,3.536,3h10C95.19,70,96,68.654,96,67v-9.26   c1-0.41,2-1.295,2-2.568V44.881c0-1.786-0.448-4.579-1.188-6.205L95.387,35.957z M7,93.956c-1-0.206-2-1.197-2-2.391v-5.224   c0,0.369,1,0.59,2,0.633V93.956z M60,94H9v-7h51V94z M64,91.565c0,1.193-1,2.185-2,2.391V87h0.288C63.115,87,63,86.752,64,86.342   V91.565z M62.102,17h0.187C63.527,17,64,18.009,64,19.248v0.187v25.736v37.581C64,83.991,63.527,85,62.288,85H7.784   C6.545,85,5,83.991,5,82.752V19.435v-0.187C5,18.009,6.545,17,7.784,17h0.187h44.142h2.063h1.922h1.226h2.132H62.102z M73.036,8h-3   c-5.089,0-9.525,2.832-11.825,7h-1.406h-1.93c2.528-5.875,8.371-10,15.161-10h3C82.134,5,89,12.402,89,21.5V33h-0.464H86V21.5   C86,14.057,80.48,8,73.036,8z M93.536,68h-10C82.984,68,82,67.551,82,67v-9h12v9C94,67.551,94.088,68,93.536,68z"/>
	<rect x="83" y="61" width="3" height="3"/>
	<rect x="90" y="61" width="3" height="3"/>
</g>
</svg>