<svg xmlns="http://www.w3.org/2000/svg" xmlns:xlink="http://www.w3.org/1999/xlink" version="1.1" id="Your_Icon" x="0px" y="0px" width="100px" height="100px" viewBox="0 0 100 100" enable-background="new 0 0 100 100" xml:space="preserve">
<g>
	<path d="M387.771,216.267h0.084v-0.663C387.83,215.826,387.803,216.047,387.771,216.267z"/>
</g>
<path d="M0,27.359v35.673l0,0v0.042c0.18-0.028,0.364-0.042,0.551-0.042h0.004c1.867,0,3.404,1.405,3.615,3.216V67.1  c-0.004,0.033-0.007,0.068-0.013,0.103h0.013v5.438h60.175h1.054h0.954h1.312h28.232v-5.438h0.014  c-0.006-0.034-0.008-0.069-0.014-0.103v-0.852c0.211-1.811,1.749-3.216,3.616-3.216c0.188,0,0.374,0.014,0.555,0.042v-0.042l0,0  V27.359H0z M9.297,70.903h-1.93v-3.706h1.93V70.903z M12.656,70.903h-1.931v-3.706h1.931V70.903z M16.014,70.903h-1.93v-3.706h1.93  V70.903z M19.373,70.903h-1.93v-3.706h1.93V70.903z M22.731,70.903H20.8v-3.706h1.931V70.903z M22.731,38.092h-1.545v1.081h1.545  v1.081h-1.545v1.081h1.545v1.081h-1.545v1.081h1.545v1.081h-1.545v1.081h1.545v1.082h-1.545v1.081h1.545v1.081h-1.545v1.08h1.545  v1.082h-1.545v1.079h1.545v1.082h-1.545v1.081h1.545v1.081h-1.545v1.919H9.76v-1.919H8.371v-1.081H9.76v-1.081H8.371v-1.082H9.76  v-1.079H8.371v-1.082H9.76v-1.08H8.371V47.82H9.76V46.74H8.371v-1.082H9.76v-1.081H8.371v-1.081H9.76v-1.081H8.371v-1.081H9.76  v-1.081H8.371v-1.081H9.76v-1.081H8.371v-1.081H9.76v-2.25h11.426v2.25h1.545V38.092z M26.09,70.903h-1.931v-3.706h1.931V70.903z   M29.448,70.903h-1.93v-3.706h1.93V70.903z M32.807,70.903h-1.93v-3.706h1.93V70.903z M36.165,70.903h-1.931v-3.706h1.931V70.903z   M39.523,70.903h-1.93v-3.706h1.93V70.903z M42.881,70.903h-1.93v-3.706h1.93V70.903z M43.961,57.306H32.537v-1.919h-1.39v-1.081  h1.39v-1.081h-1.39v-1.082h1.39v-1.079h-1.39v-1.082h1.39v-1.08h-1.39V47.82h1.39V46.74h-1.39v-1.082h1.39v-1.081h-1.39v-1.081h1.39  v-1.081h-1.39v-1.081h1.39v-1.081h-1.39v-1.081h1.39v-1.081h-1.39v-1.081h1.39v-2.25h11.425v2.25h1.545v1.081h-1.545v1.081h1.545  v1.081h-1.545v1.081h1.545v1.081h-1.545v1.081h1.545v1.081h-1.545v1.081h1.545v1.082h-1.545v1.081h1.545v1.081h-1.545v1.08h1.545  v1.082h-1.545v1.079h1.545v1.082h-1.545v1.081h1.545v1.081h-1.545V57.306z M46.24,70.903H44.31v-3.706h1.931V70.903z M49.598,70.903  h-1.93v-3.706h1.93V70.903z M52.957,70.903h-1.93v-3.706h1.93V70.903z M56.314,70.903h-1.93v-3.706h1.93V70.903z M59.672,70.903  h-1.929v-3.706h1.929V70.903z M63.033,70.903h-1.931v-3.706h1.931V70.903z M66.813,55.387v1.919H55.389v-1.919h-1.39v-1.081h1.39  v-1.081h-1.39v-1.082h1.39v-1.079h-1.39v-1.082h1.39v-1.08h-1.39V47.82h1.39V46.74h-1.39v-1.082h1.39v-1.081h-1.39v-1.081h1.39  v-1.081h-1.39v-1.081h1.39v-1.081h-1.39v-1.081h1.39v-1.081h-1.39v-1.081h1.39v-2.25h11.425v2.25h1.546v1.081h-1.546v1.081h1.546  v1.081h-1.546v1.081h1.546v1.081h-1.546v1.081h1.546v1.081h-1.546v1.081h1.546v1.082h-1.546v1.081h1.546v1.081h-1.546v1.08h1.546  v1.082h-1.546v1.079h1.546v1.082h-1.546v1.081h1.546v1.081H66.813z M69.751,70.903h-1.933v-3.706h1.933V70.903z M73.108,70.903  h-1.931v-3.706h1.931V70.903z M76.465,70.903h-1.93v-3.706h1.93V70.903z M79.826,70.903h-1.934v-3.706h1.934V70.903z M83.184,70.903  h-1.931v-3.706h1.931V70.903z M86.54,70.903h-1.93v-3.706h1.93V70.903z M89.9,70.903h-1.932v-3.706H89.9V70.903z M91.213,38.092  h-1.546v1.081h1.546v1.081h-1.546v1.081h1.546v1.081h-1.546v1.081h1.546v1.081h-1.546v1.081h1.546v1.082h-1.546v1.081h1.546v1.081  h-1.546v1.08h1.546v1.082h-1.546v1.079h1.546v1.082h-1.546v1.081h1.546v1.081h-1.546v1.919H78.241v-1.919h-1.39v-1.081h1.39v-1.081  h-1.39v-1.082h1.39v-1.079h-1.39v-1.082h1.39v-1.08h-1.39V47.82h1.39V46.74h-1.39v-1.082h1.39v-1.081h-1.39v-1.081h1.39v-1.081  h-1.39v-1.081h1.39v-1.081h-1.39v-1.081h1.39v-1.081h-1.39v-1.081h1.39v-2.25h11.426v2.25h1.546V38.092z M93.258,70.903h-1.93  v-3.706h1.93V70.903z"/>
</svg>